# xmcd
#
# Track frame offsets:
# 150
# 21322
# 40262
# 57695
# 75785
# 92063
# 109099
# 128011
# 145153
# 158567
# 174512
# 190576
# 207939
# 224519
# 242200
#
# Disc length: 3472 seconds
#
#
# Revision: 0
# Processed by: cddbd v1.5.2PL0 Copyright (c) Steve Scherf et al.
# Submitted via: FreeRIP 2.95 
#
DISCID=ca0d8e0f
DTITLE=Grupo Status - Velhos Amigos
DYEAR=1900
DGENRE=Ethnic
TTITLE0=Lembrança Livradeira
TTITLE1=Feitiço da Lagoa
TTITLE2=Tambor da Minha Terra
TTITLE3=Sonho, Saudade e Rimas
TTITLE4=Cordeona
TTITLE5=Velhos Amigos
TTITLE6=Capitão do Mato
TTITLE7=Canto Alegretense
TTITLE8=Entardecer
TTITLE9=Sete Nações e Uma Cruz
TTITLE10=Coração Afro-Açoriano
TTITLE11=Crendices
TTITLE12=Terra sem Males
TTITLE13=Paisagem
TTITLE14=Menino-Potro
EXTD=
EXTT0=
EXTT1=
EXTT2=
EXTT3=
EXTT4=
EXTT5=
EXTT6=
EXTT7=
EXTT8=
EXTT9=
EXTT10=
EXTT11=
EXTT12=
EXTT13=
EXTT14=
PLAYORDER=
